<?xml version="1.0" encoding="UTF-8"?>
<!DOCTYPE svg PUBLIC "-//W3C//DTD SVG 1.1//EN" "http://www.w3.org/Graphics/SVG/1.1/DTD/svg11.dtd">
<svg xmlns="http://www.w3.org/2000/svg" version="1.1" width="157px" height="45px" style="shape-rendering:geometricPrecision; text-rendering:geometricPrecision; image-rendering:optimizeQuality; fill-rule:evenodd; clip-rule:evenodd" xmlns:xlink="http://www.w3.org/1999/xlink">
<g><path style="opacity:0.861" fill="#000000" d="M 47.5,6.5 C 61.3479,7.85315 66.1813,15.1865 62,28.5C 55.3481,36.5403 47.6814,37.5403 39,31.5C 32.2283,19.6435 35.0616,11.3102 47.5,6.5 Z M 46.5,13.5 C 52.2398,12.7352 55.5731,15.2352 56.5,21C 54.5121,28.9591 50.3454,30.4591 44,25.5C 42.0205,20.933 42.8538,16.933 46.5,13.5 Z"/></g>
<g><path style="opacity:0.865" fill="#000000" d="M 77.5,6.5 C 87.8246,6.16911 93.4912,11.1691 94.5,21.5C 91.4402,34.3607 83.7736,38.194 71.5,33C 64.7687,26.559 63.9353,19.3924 69,11.5C 71.5308,9.09674 74.3641,7.43008 77.5,6.5 Z M 77.5,13.5 C 85.0978,13.3341 87.9312,17.0008 86,24.5C 83.9473,28.2916 80.7806,29.4582 76.5,28C 72.2845,22.7195 72.6179,17.8862 77.5,13.5 Z"/></g>
<g><path style="opacity:0.771" fill="#ed8678" d="M 109.5,6.5 C 109.5,7.16667 109.5,7.83333 109.5,8.5C 107.771,10.7267 105.438,11.7267 102.5,11.5C 103.527,8.14202 105.86,6.47535 109.5,6.5 Z"/></g>
<g><path style="opacity:0.626" fill="#f6b965" d="M 109.5,6.5 C 111.5,6.5 113.5,6.5 115.5,6.5C 114.833,7.5 114.167,8.5 113.5,9.5C 112.833,9.5 112.167,9.5 111.5,9.5C 111.158,8.66175 110.492,8.32842 109.5,8.5C 109.5,7.83333 109.5,7.16667 109.5,6.5 Z"/></g>
<g><path style="opacity:0.887" fill="#000000" d="M 2.5,7.5 C 6.16667,7.5 9.83333,7.5 13.5,7.5C 14.1909,12.5977 15.3575,17.5977 17,22.5C 18.8,17.9797 20.3,13.313 21.5,8.5C 25.1073,7.51078 28.774,7.17744 32.5,7.5C 32.5,16.5 32.5,25.5 32.5,34.5C 29.8333,34.5 27.1667,34.5 24.5,34.5C 25.0708,16.1375 23.7375,16.1375 20.5,34.5C 18.076,34.8076 15.7427,34.4742 13.5,33.5C 12.0012,28.1723 10.5012,22.839 9,17.5C 8.50058,23.1569 8.33391,28.8236 8.5,34.5C 6.5,34.5 4.5,34.5 2.5,34.5C 2.5,25.5 2.5,16.5 2.5,7.5 Z"/></g>
<g><path style="opacity:1" fill="#cc9cb3" d="M 115.5,6.5 C 117.783,6.60791 119.783,7.44124 121.5,9C 122.252,9.67076 122.586,10.5041 122.5,11.5C 120.801,11.3398 119.134,11.5065 117.5,12C 114.381,16.5408 113.048,15.7074 113.5,9.5C 114.167,8.5 114.833,7.5 115.5,6.5 Z"/></g>
<g><path style="opacity:0.767" fill="#f7a00f" d="M 132.5,8.5 C 133.117,8.61071 133.617,8.94404 134,9.5C 134.5,16.8258 134.666,24.1591 134.5,31.5C 136.942,31.3537 137.609,32.187 136.5,34C 133.854,34.4974 131.187,34.6641 128.5,34.5C 128.5,33.5 128.5,32.5 128.5,31.5C 129.5,31.5 130.5,31.5 131.5,31.5C 131.666,25.4908 131.499,19.4908 131,13.5C 129.89,15.0368 128.39,15.7035 126.5,15.5C 126.351,14.448 126.517,13.448 127,12.5C 129.015,11.3034 130.849,9.97008 132.5,8.5 Z"/></g>
<g><path style="opacity:0.7" fill="#f7a00f" d="M 156.5,22.5 C 156.5,25.1667 156.5,27.8333 156.5,30.5C 148.333,37.0042 142.667,35.3375 139.5,25.5C 142.428,27.3957 145.428,29.3957 148.5,31.5C 153.595,29.9207 154.595,27.0874 151.5,23C 150.207,22.51 148.873,22.3433 147.5,22.5C 147.83,19.8906 149.33,18.2239 152,17.5C 153.24,14.0935 152.073,12.4269 148.5,12.5C 146.407,12.4858 144.574,13.1524 143,14.5C 141.049,12.8629 141.216,11.3629 143.5,10C 153.201,7.20095 156.867,10.701 154.5,20.5C 154.855,21.5223 155.522,22.189 156.5,22.5 Z"/></g>
<g><path style="opacity:0.787" fill="#dede71" d="M 102.5,11.5 C 102.5,12.8333 102.5,14.1667 102.5,15.5C 101.167,16.1667 99.8333,16.8333 98.5,17.5C 98.8702,14.733 100.204,12.733 102.5,11.5 Z"/></g>
<g><path style="opacity:1" fill="#e77d53" d="M 109.5,8.5 C 110.492,8.32842 111.158,8.66175 111.5,9.5C 111.5,11.5 111.5,13.5 111.5,15.5C 109.77,16.0256 108.436,17.0256 107.5,18.5C 105.632,17.7368 103.965,16.7368 102.5,15.5C 102.5,14.1667 102.5,12.8333 102.5,11.5C 105.438,11.7267 107.771,10.7267 109.5,8.5 Z"/></g>
<g><path style="opacity:1" fill="#c980a1" d="M 111.5,9.5 C 112.167,9.5 112.833,9.5 113.5,9.5C 113.048,15.7074 114.381,16.5408 117.5,12C 119.134,11.5065 120.801,11.3398 122.5,11.5C 119.896,13.6 117.396,15.9334 115,18.5C 114.329,17.7476 113.496,17.4142 112.5,17.5C 112.167,16.8333 111.833,16.1667 111.5,15.5C 111.5,13.5 111.5,11.5 111.5,9.5 Z"/></g>
<g><path style="opacity:0.875" fill="#dd5a6b" d="M 111.5,15.5 C 111.833,16.1667 112.167,16.8333 112.5,17.5C 109.516,17.7868 108.183,19.4535 108.5,22.5C 108.167,22.5 107.833,22.5 107.5,22.5C 107.5,21.1667 107.5,19.8333 107.5,18.5C 108.436,17.0256 109.77,16.0256 111.5,15.5 Z"/></g>
<g><path style="opacity:1" fill="#e4b445" d="M 102.5,15.5 C 103.965,16.7368 105.632,17.7368 107.5,18.5C 107.5,19.8333 107.5,21.1667 107.5,22.5C 107.5,22.8333 107.5,23.1667 107.5,23.5C 105.716,23.8925 104.05,24.5592 102.5,25.5C 101.167,25.1667 99.8333,24.8333 98.5,24.5C 98.5,22.1667 98.5,19.8333 98.5,17.5C 99.8333,16.8333 101.167,16.1667 102.5,15.5 Z"/></g>
<g><path style="opacity:0.786" fill="#7fc1a3" d="M 98.5,24.5 C 99.8333,24.8333 101.167,25.1667 102.5,25.5C 102.5,27.1667 102.5,28.8333 102.5,30.5C 100.204,29.267 98.8702,27.267 98.5,24.5 Z"/></g>
<g><path style="opacity:1" fill="#c6d259" d="M 107.5,23.5 C 108.88,25.719 108.546,27.719 106.5,29.5C 107.456,31.0754 108.123,32.742 108.5,34.5C 108.565,34.9382 108.399,35.2716 108,35.5C 106.581,34.5399 105.081,33.7065 103.5,33C 102.748,32.3292 102.414,31.4959 102.5,30.5C 102.5,28.8333 102.5,27.1667 102.5,25.5C 104.05,24.5592 105.716,23.8925 107.5,23.5 Z"/></g>
<g><path style="opacity:1" fill="#bfc76e" d="M 107.5,22.5 C 107.833,22.5 108.167,22.5 108.5,22.5C 109.833,23.1667 111.167,23.8333 112.5,24.5C 111.612,27.0545 111.279,29.7212 111.5,32.5C 110.5,32.8333 109.833,33.5 109.5,34.5C 109.167,34.5 108.833,34.5 108.5,34.5C 108.123,32.742 107.456,31.0754 106.5,29.5C 108.546,27.719 108.88,25.719 107.5,23.5C 107.5,23.1667 107.5,22.8333 107.5,22.5 Z"/></g>
<g><path style="opacity:1" fill="#5baf9d" d="M 116.5,35.5 C 115.341,33.7497 113.674,32.7497 111.5,32.5C 111.279,29.7212 111.612,27.0545 112.5,24.5C 113.738,23.5876 115.072,23.4209 116.5,24C 118.333,25.8333 120.167,27.6667 122,29.5C 121.544,32.4694 119.711,34.4694 116.5,35.5 Z"/></g>
<g><path style="opacity:0.655" fill="#91b3da" d="M 111.5,32.5 C 113.674,32.7497 115.341,33.7497 116.5,35.5C 113.941,35.8016 111.607,35.4682 109.5,34.5C 109.833,33.5 110.5,32.8333 111.5,32.5 Z"/></g>
</svg>
