<?xml version="1.0" encoding="UTF-8"?>
<!DOCTYPE svg PUBLIC "-//W3C//DTD SVG 1.1//EN" "http://www.w3.org/Graphics/SVG/1.1/DTD/svg11.dtd">
<svg xmlns="http://www.w3.org/2000/svg" version="1.1" width="314px" height="90px" style="shape-rendering:geometricPrecision; text-rendering:geometricPrecision; image-rendering:optimizeQuality; fill-rule:evenodd; clip-rule:evenodd" xmlns:xlink="http://www.w3.org/1999/xlink">
<g><path style="opacity:0.862" fill="#ed8678" d="M 219.5,14.5 C 219.5,14.8333 219.5,15.1667 219.5,15.5C 217.659,17.8485 216.326,20.5152 215.5,23.5C 212.5,23.5 209.5,23.5 206.5,23.5C 206.167,23.5 205.833,23.5 205.5,23.5C 205.167,23.5 204.833,23.5 204.5,23.5C 207.188,18.7918 211.188,15.4585 216.5,13.5C 217.417,14.1272 218.417,14.4606 219.5,14.5 Z"/></g>
<g><path style="opacity:0.952" fill="#f7bd64" d="M 231.5,14.5 C 230.473,16.1942 229.139,17.5275 227.5,18.5C 227.167,18.5 226.833,18.5 226.5,18.5C 223.759,18.2927 221.426,17.2927 219.5,15.5C 219.5,15.1667 219.5,14.8333 219.5,14.5C 223.289,14.3243 227.289,14.3243 231.5,14.5 Z"/></g>
<g><path style="opacity:1" fill="#fefffe" d="M 95.5,14.5 C 107.413,13.5395 116.913,17.8729 124,27.5C 132.756,53.0114 123.922,67.6781 97.5,71.5C 81.3039,68.8062 72.6372,59.3062 71.5,43C 72.5085,27.4996 80.5085,17.9996 95.5,14.5 Z M 97.5,26.5 C 107.387,27.5542 112.721,33.0542 113.5,43C 111.513,56.6543 104.18,60.9877 91.5,56C 83.091,46.2997 83.7577,36.9664 93.5,28C 95.0581,27.79 96.3915,27.29 97.5,26.5 Z"/></g>
<g><path style="opacity:1" fill="#fefffe" d="M 154.5,14.5 C 174.731,13.57 186.398,23.07 189.5,43C 187.44,59.393 178.273,68.893 162,71.5C 136.419,67.5578 127.752,53.2245 136,28.5C 140.321,21.3393 146.488,16.6727 154.5,14.5 Z M 158.5,26.5 C 168.866,27.0378 174.2,32.5378 174.5,43C 173.026,56.1589 166.026,60.8256 153.5,57C 146.439,49.2427 145.272,40.7427 150,31.5C 152.531,29.0967 155.364,27.4301 158.5,26.5 Z"/></g>
<g><path style="opacity:0.892" fill="#caa8cf" d="M 232.5,14.5 C 236.604,14.8839 240.271,16.3839 243.5,19C 245.466,20.3466 245.799,21.8466 244.5,23.5C 241.833,23.5 239.167,23.5 236.5,23.5C 235.439,20.3777 234.105,17.3777 232.5,14.5 Z"/></g>
<g><path style="opacity:1" fill="#fefffe" d="M 5.5,15.5 C 12.4222,15.1878 19.2555,15.5212 26,16.5C 29.1557,27.4561 32.1557,38.4561 35,49.5C 38.1519,38.2258 40.9852,26.8925 43.5,15.5C 50.8409,15.3337 58.1742,15.5003 65.5,16C 64.5077,33.7566 64.1744,51.5899 64.5,69.5C 59.8333,69.5 55.1667,69.5 50.5,69.5C 50.6665,57.8286 50.4999,46.1619 50,34.5C 46.7245,46.1564 43.5579,57.8231 40.5,69.5C 36.1667,69.5 31.8333,69.5 27.5,69.5C 25.3203,57.959 22.3203,46.6257 18.5,35.5C 17.5012,46.8138 17.1678,58.1471 17.5,69.5C 13.5,69.5 9.5,69.5 5.5,69.5C 5.5,51.5 5.5,33.5 5.5,15.5 Z"/></g>
<g><path style="opacity:1" fill="#ea7353" d="M 219.5,15.5 C 221.426,17.2927 223.759,18.2927 226.5,18.5C 225.791,19.404 224.791,19.7373 223.5,19.5C 223.5,23.5 223.5,27.5 223.5,31.5C 222.391,31.5569 221.391,31.8902 220.5,32.5C 220.06,28.7485 218.393,25.7485 215.5,23.5C 216.326,20.5152 217.659,17.8485 219.5,15.5 Z"/></g>
<g><path style="opacity:1" fill="#cc96a7" d="M 231.5,14.5 C 231.833,14.5 232.167,14.5 232.5,14.5C 234.105,17.3777 235.439,20.3777 236.5,23.5C 234.3,25.3778 232.633,27.7111 231.5,30.5C 230.311,31.4287 228.978,31.762 227.5,31.5C 227.5,27.1667 227.5,22.8333 227.5,18.5C 229.139,17.5275 230.473,16.1942 231.5,14.5 Z"/></g>
<g><path style="opacity:0.957" fill="#f7a00f" d="M 265.5,18.5 C 266.496,18.4142 267.329,18.7476 268,19.5C 268.333,33.8333 268.667,48.1667 269,62.5C 270.399,63.2266 271.899,63.7266 273.5,64C 274.833,65.3333 274.833,66.6667 273.5,68C 268.5,68.6667 263.5,68.6667 258.5,68C 257.167,66.6667 257.167,65.3333 258.5,64C 260.134,63.5065 261.801,63.3398 263.5,63.5C 263.832,51.4815 263.499,39.4815 262.5,27.5C 260.422,29.9864 257.755,30.9864 254.5,30.5C 254.343,29.1266 254.51,27.7932 255,26.5C 258.4,23.5862 261.9,20.9195 265.5,18.5 Z"/></g>
<g><path style="opacity:0.813" fill="#f7a00f" d="M 313.5,45.5 C 313.5,50.8333 313.5,56.1667 313.5,61.5C 299.091,73.6108 287.757,71.4441 279.5,55C 280.45,52.0899 282.45,50.9232 285.5,51.5C 286.448,58.4477 290.448,62.4477 297.5,63.5C 303.847,62.4859 307.514,58.8192 308.5,52.5C 308.594,50.0884 307.594,48.255 305.5,47C 302.895,45.9787 300.228,45.1454 297.5,44.5C 296.585,43.6721 295.919,42.6721 295.5,41.5C 298.788,39.7809 301.955,37.7809 305,35.5C 307.503,28.5595 305.003,24.8929 297.5,24.5C 293.263,24.7454 289.429,26.0788 286,28.5C 283.812,27.9407 283.146,26.6073 284,24.5C 292.119,17.2687 300.453,16.9354 309,23.5C 311.458,27.8231 312.125,32.4898 311,37.5C 310.052,39.5701 308.552,41.0701 306.5,42C 308.97,42.9888 311.303,44.1554 313.5,45.5 Z"/></g>
<g><path style="opacity:0.926" fill="#dedf71" d="M 204.5,23.5 C 204.833,23.5 205.167,23.5 205.5,23.5C 206.568,29.0135 204.568,32.6802 199.5,34.5C 199.167,34.5 198.833,34.5 198.5,34.5C 199.214,30.0666 201.214,26.4 204.5,23.5 Z"/></g>
<g><path style="opacity:1" fill="#e57e54" d="M 206.5,23.5 C 209.5,23.5 212.5,23.5 215.5,23.5C 218.393,25.7485 220.06,28.7485 220.5,32.5C 219.4,33.5585 218.066,34.3918 216.5,35C 215.748,35.6708 215.414,36.5041 215.5,37.5C 215.5,40.5 215.5,43.5 215.5,46.5C 215.167,46.5 214.833,46.5 214.5,46.5C 214.5,44.8333 214.5,43.1667 214.5,41.5C 214.785,39.712 214.452,38.0453 213.5,36.5C 211.201,35.3649 209.034,34.0316 207,32.5C 206.502,29.5184 206.335,26.5184 206.5,23.5 Z"/></g>
<g><path style="opacity:1" fill="#c981a1" d="M 226.5,18.5 C 226.833,18.5 227.167,18.5 227.5,18.5C 227.5,22.8333 227.5,27.1667 227.5,31.5C 228.978,31.762 230.311,31.4287 231.5,30.5C 232.633,27.7111 234.3,25.3778 236.5,23.5C 239.167,23.5 241.833,23.5 244.5,23.5C 240.109,27.3865 235.776,31.5532 231.5,36C 229.494,35.8497 227.494,35.3497 225.5,34.5C 224.833,33.5 224.167,32.5 223.5,31.5C 223.5,27.5 223.5,23.5 223.5,19.5C 224.791,19.7373 225.791,19.404 226.5,18.5 Z"/></g>
<g><path style="opacity:1" fill="#eeb72f" d="M 205.5,23.5 C 205.833,23.5 206.167,23.5 206.5,23.5C 206.335,26.5184 206.502,29.5184 207,32.5C 209.034,34.0316 211.201,35.3649 213.5,36.5C 214.452,38.0453 214.785,39.712 214.5,41.5C 210.5,41.5 206.5,41.5 202.5,41.5C 201.088,39.3964 200.088,37.0631 199.5,34.5C 204.568,32.6802 206.568,29.0135 205.5,23.5 Z"/></g>
<g><path style="opacity:0.894" fill="#e15561" d="M 223.5,31.5 C 224.167,32.5 224.833,33.5 225.5,34.5C 222.86,35.4485 220.193,36.4485 217.5,37.5C 216.833,37.5 216.167,37.5 215.5,37.5C 215.414,36.5041 215.748,35.6708 216.5,35C 218.066,34.3918 219.4,33.5585 220.5,32.5C 221.391,31.8902 222.391,31.5569 223.5,31.5 Z"/></g>
<g><path style="opacity:1" fill="#f7bf60" d="M 198.5,34.5 C 198.833,34.5 199.167,34.5 199.5,34.5C 200.088,37.0631 201.088,39.3964 202.5,41.5C 202.043,44.4056 201.043,47.0722 199.5,49.5C 199.167,49.5 198.833,49.5 198.5,49.5C 197.167,44.5 197.167,39.5 198.5,34.5 Z"/></g>
<g><path style="opacity:1" fill="#d56a85" d="M 215.5,37.5 C 216.167,37.5 216.833,37.5 217.5,37.5C 217.5,40.1667 217.5,42.8333 217.5,45.5C 217.158,46.3382 216.492,46.6716 215.5,46.5C 215.5,43.5 215.5,40.5 215.5,37.5 Z"/></g>
<g><path style="opacity:1" fill="#d9b344" d="M 202.5,41.5 C 206.5,41.5 210.5,41.5 214.5,41.5C 214.5,43.1667 214.5,44.8333 214.5,46.5C 214.5,46.8333 214.5,47.1667 214.5,47.5C 211.24,48.7738 208.24,50.4405 205.5,52.5C 203.289,51.8772 201.289,50.8772 199.5,49.5C 201.043,47.0722 202.043,44.4056 202.5,41.5 Z"/></g>
<g><path style="opacity:0.668" fill="#cbbc69" d="M 217.5,45.5 C 219.83,47.6672 222.497,49.3338 225.5,50.5C 225.5,50.8333 225.5,51.1667 225.5,51.5C 224.167,51.5 223.5,52.1667 223.5,53.5C 221.851,52.5272 220.184,51.5272 218.5,50.5C 217.71,49.5987 216.71,48.9321 215.5,48.5C 215.5,47.8333 215.167,47.5 214.5,47.5C 214.5,47.1667 214.5,46.8333 214.5,46.5C 214.833,46.5 215.167,46.5 215.5,46.5C 216.492,46.6716 217.158,46.3382 217.5,45.5 Z"/></g>
<g><path style="opacity:0.915" fill="#7cc1a4" d="M 198.5,49.5 C 198.833,49.5 199.167,49.5 199.5,49.5C 201.289,50.8772 203.289,51.8772 205.5,52.5C 205.5,52.8333 205.5,53.1667 205.5,53.5C 205.5,56.1667 205.5,58.8333 205.5,61.5C 203.983,61.4894 202.816,60.8228 202,59.5C 199.965,56.4388 198.799,53.1055 198.5,49.5 Z"/></g>
<g><path style="opacity:1" fill="#d2ca2e" d="M 214.5,47.5 C 215.167,47.5 215.5,47.8333 215.5,48.5C 215.047,49.4584 214.381,50.2917 213.5,51C 211.073,52.5914 208.407,53.4248 205.5,53.5C 205.5,53.1667 205.5,52.8333 205.5,52.5C 208.24,50.4405 211.24,48.7738 214.5,47.5 Z"/></g>
<g><path style="opacity:1" fill="#b8ce55" d="M 215.5,48.5 C 216.71,48.9321 217.71,49.5987 218.5,50.5C 216.784,54.1939 215.117,57.8606 213.5,61.5C 210.833,61.5 208.167,61.5 205.5,61.5C 205.5,58.8333 205.5,56.1667 205.5,53.5C 208.407,53.4248 211.073,52.5914 213.5,51C 214.381,50.2917 215.047,49.4584 215.5,48.5 Z"/></g>
<g><path style="opacity:0.939" fill="#6baa9d" d="M 244.5,61.5 C 242.167,61.5 239.833,61.5 237.5,61.5C 236.426,57.6953 235.092,54.0286 233.5,50.5C 231.142,50.2525 229.142,50.9192 227.5,52.5C 227.158,51.6618 226.492,51.3284 225.5,51.5C 225.5,51.1667 225.5,50.8333 225.5,50.5C 227.46,48.5159 229.793,47.6826 232.5,48C 237.407,52.3637 241.407,56.8637 244.5,61.5 Z"/></g>
<g><path style="opacity:1" fill="#bbc96f" d="M 218.5,50.5 C 220.184,51.5272 221.851,52.5272 223.5,53.5C 223.307,57.5662 223.64,61.5662 224.5,65.5C 222.147,66.3403 220.147,67.6736 218.5,69.5C 217.805,66.0846 216.138,63.4179 213.5,61.5C 215.117,57.8606 216.784,54.1939 218.5,50.5 Z"/></g>
<g><path style="opacity:1" fill="#5bb186" d="M 225.5,51.5 C 226.492,51.3284 227.158,51.6618 227.5,52.5C 227.769,56.9315 227.436,61.2648 226.5,65.5C 225.833,65.5 225.167,65.5 224.5,65.5C 223.64,61.5662 223.307,57.5662 223.5,53.5C 223.5,52.1667 224.167,51.5 225.5,51.5 Z"/></g>
<g><path style="opacity:1" fill="#47aa9f" d="M 237.5,61.5 C 235.659,63.8485 234.326,66.5152 233.5,69.5C 231.031,68.4314 228.698,67.0981 226.5,65.5C 227.436,61.2648 227.769,56.9315 227.5,52.5C 229.142,50.9192 231.142,50.2525 233.5,50.5C 235.092,54.0286 236.426,57.6953 237.5,61.5 Z"/></g>
<g><path style="opacity:0.879" fill="#dddf72" d="M 205.5,61.5 C 208.167,61.5 210.833,61.5 213.5,61.5C 216.138,63.4179 217.805,66.0846 218.5,69.5C 217.85,69.8039 217.183,70.1373 216.5,70.5C 213.327,68.4128 209.994,66.5795 206.5,65C 205.663,63.9887 205.33,62.8221 205.5,61.5 Z"/></g>
<g><path style="opacity:0.89" fill="#7ac1a6" d="M 237.5,61.5 C 239.833,61.5 242.167,61.5 244.5,61.5C 244.67,62.8221 244.337,63.9887 243.5,65C 240.273,67.1118 236.94,68.9451 233.5,70.5C 233.5,70.1667 233.5,69.8333 233.5,69.5C 234.326,66.5152 235.659,63.8485 237.5,61.5 Z"/></g>
<g><path style="opacity:0.968" fill="#91b3db" d="M 224.5,65.5 C 225.167,65.5 225.833,65.5 226.5,65.5C 228.698,67.0981 231.031,68.4314 233.5,69.5C 233.5,69.8333 233.5,70.1667 233.5,70.5C 229.233,70.203 225.066,70.5363 221,71.5C 220.005,70.9341 219.172,70.2674 218.5,69.5C 220.147,67.6736 222.147,66.3403 224.5,65.5 Z"/></g>
</svg>
